<?xml version="1.0" encoding="utf-8"?>
<svg version="1.1" id="Capa_1" x="0px" y="0px" viewBox="0 0 55.867 55.867" style="enable-background:new 0 0 55.867 55.867;" xmlns="http://www.w3.org/2000/svg">
  <path d="M 54.454 22.029 C 54.342 21.689 54.045 21.441 53.687 21.391 L 36.525 18.921 L 28.85 3.525 C 28.691 3.204 28.361 3 28 3 C 27.64 3 27.309 3.204 27.15 3.525 L 19.475 18.921 L 2.313 21.391 C 1.955 21.442 1.659 21.689 1.546 22.029 C 1.436 22.369 1.528 22.742 1.787 22.992 L 14.206 34.975 L 11.273 51.9 C 11.213 52.252 11.359 52.609 11.65 52.818 C 11.943 53.031 12.331 53.059 12.649 52.891 L 28 44.9 L 43.35 52.891 C 43.489 52.963 43.641 52.998 43.792 52.998 C 43.989 52.998 44.184 52.939 44.35 52.818 C 44.642 52.609 44.788 52.252 44.727 51.9 L 41.795 34.977 L 54.214 22.992 C 54.472 22.741 54.565 22.369 54.454 22.029 Z" style="stroke: rgb(0, 0, 0); vector-effect: non-scaling-stroke; stroke-width: 31px;"/>
  <g/>
  <g/>
  <g/>
  <g/>
  <g/>
  <g/>
  <g/>
  <g/>
  <g/>
  <g/>
  <g/>
  <g/>
  <g/>
  <g/>
  <g/>
</svg>