<svg width="21" height="20" viewBox="0 0 21 20" fill="none" xmlns="http://www.w3.org/2000/svg">
<path d="M10.7999 13.5L15.2999 9L13.8749 7.6L10.7999 10.675L7.72493 7.6L6.29993 9L10.7999 13.5ZM10.7999 20C9.41659 20 8.11659 19.7373 6.89993 19.212C5.68326 18.6867 4.62493 17.9743 3.72493 17.075C2.82493 16.175 2.11259 15.1167 1.58793 13.9C1.06326 12.6833 0.800593 11.3833 0.799927 10C0.799927 8.61667 1.06259 7.31667 1.58793 6.1C2.11326 4.88333 2.82559 3.825 3.72493 2.925C4.62493 2.025 5.68326 1.31267 6.89993 0.788C8.11659 0.263333 9.41659 0.000666667 10.7999 0C12.1833 0 13.4833 0.262667 14.6999 0.788C15.9166 1.31333 16.9749 2.02567 17.8749 2.925C18.7749 3.825 19.4876 4.88333 20.0129 6.1C20.5383 7.31667 20.8006 8.61667 20.7999 10C20.7999 11.3833 20.5373 12.6833 20.0119 13.9C19.4866 15.1167 18.7743 16.175 17.8749 17.075C16.9749 17.975 15.9166 18.6877 14.6999 19.213C13.4833 19.7383 12.1833 20.0007 10.7999 20ZM10.7999 18C13.0333 18 14.9249 17.225 16.4749 15.675C18.0249 14.125 18.7999 12.2333 18.7999 10C18.7999 7.76667 18.0249 5.875 16.4749 4.325C14.9249 2.775 13.0333 2 10.7999 2C8.56659 2 6.67493 2.775 5.12493 4.325C3.57493 5.875 2.79993 7.76667 2.79993 10C2.79993 12.2333 3.57493 14.125 5.12493 15.675C6.67493 17.225 8.56659 18 10.7999 18Z" fill="black"/>
</svg>
