<svg width="21" height="20" viewBox="0 0 21 20" fill="none" xmlns="http://www.w3.org/2000/svg">
<path d="M10.2 13L14.2 9H6.20001L10.2 13ZM10.2 20C8.81668 20 7.51668 19.7373 6.30001 19.212C5.08335 18.6867 4.02501 17.9743 3.12501 17.075C2.22501 16.175 1.51268 15.1167 0.988012 13.9C0.463346 12.6833 0.200679 11.3833 0.200012 10C0.200012 8.61667 0.462679 7.31667 0.988012 6.1C1.51335 4.88333 2.22568 3.825 3.12501 2.925C4.02501 2.025 5.08335 1.31267 6.30001 0.788C7.51668 0.263333 8.81668 0.000666667 10.2 0C11.5833 0 12.8833 0.262667 14.1 0.788C15.3167 1.31333 16.375 2.02567 17.275 2.925C18.175 3.825 18.8877 4.88333 19.413 6.1C19.9383 7.31667 20.2007 8.61667 20.2 10C20.2 11.3833 19.9373 12.6833 19.412 13.9C18.8867 15.1167 18.1743 16.175 17.275 17.075C16.375 17.975 15.3167 18.6877 14.1 19.213C12.8833 19.7383 11.5833 20.0007 10.2 20Z" fill="black"/>
</svg>
