<svg width="21" height="20" viewBox="0 0 21 20" fill="none" xmlns="http://www.w3.org/2000/svg">
<path d="M10.7499 13.5L15.2499 9L13.8249 7.6L10.7499 10.675L7.67494 7.6L6.24994 9L10.7499 13.5ZM10.7499 20C9.36661 20 8.06661 19.7373 6.84994 19.212C5.63327 18.6867 4.57494 17.9743 3.67494 17.075C2.77494 16.175 2.06261 15.1167 1.53794 13.9C1.01327 12.6833 0.750606 11.3833 0.749939 10C0.749939 8.61667 1.01261 7.31667 1.53794 6.1C2.06327 4.88333 2.77561 3.825 3.67494 2.925C4.57494 2.025 5.63327 1.31267 6.84994 0.788C8.06661 0.263333 9.36661 0.000666667 10.7499 0C12.1333 0 13.4333 0.262667 14.6499 0.788C15.8666 1.31333 16.9249 2.02567 17.8249 2.925C18.7249 3.825 19.4376 4.88333 19.9629 6.1C20.4883 7.31667 20.7506 8.61667 20.7499 10C20.7499 11.3833 20.4873 12.6833 19.9619 13.9C19.4366 15.1167 18.7243 16.175 17.8249 17.075C16.9249 17.975 15.8666 18.6877 14.6499 19.213C13.4333 19.7383 12.1333 20.0007 10.7499 20Z" fill="black"/>
</svg>
