<svg width="21" height="20" viewBox="0 0 21 20" fill="none" xmlns="http://www.w3.org/2000/svg">
<path d="M14.46 12C14.54 11.34 14.6 10.68 14.6 10C14.6 9.32 14.54 8.66 14.46 8H17.84C18 8.64 18.1 9.31 18.1 10C18.1 10.69 18 11.36 17.84 12M12.69 17.56C13.29 16.45 13.75 15.25 14.07 14H17.02C16.0512 15.6683 14.5141 16.932 12.69 17.56ZM12.44 12H7.76001C7.66001 11.34 7.60001 10.68 7.60001 10C7.60001 9.32 7.66001 8.65 7.76001 8H12.44C12.53 8.65 12.6 9.32 12.6 10C12.6 10.68 12.53 11.34 12.44 12ZM10.1 17.96C9.27001 16.76 8.60001 15.43 8.19001 14H12.01C11.6 15.43 10.93 16.76 10.1 17.96ZM6.10001 6H3.18001C4.13886 4.32721 5.6748 3.06149 7.50001 2.44C6.90001 3.55 6.45001 4.75 6.10001 6ZM3.18001 14H6.10001C6.45001 15.25 6.90001 16.45 7.50001 17.56C5.67863 16.9317 4.14485 15.6677 3.18001 14ZM2.36001 12C2.20001 11.36 2.10001 10.69 2.10001 10C2.10001 9.31 2.20001 8.64 2.36001 8H5.74001C5.66001 8.66 5.60001 9.32 5.60001 10C5.60001 10.68 5.66001 11.34 5.74001 12M10.1 2.03C10.93 3.23 11.6 4.57 12.01 6H8.19001C8.60001 4.57 9.27001 3.23 10.1 2.03ZM17.02 6H14.07C13.757 4.76146 13.2936 3.5659 12.69 2.44C14.53 3.07 16.06 4.34 17.02 6ZM10.1 0C4.57001 0 0.100006 4.5 0.100006 10C0.100006 12.6522 1.15357 15.1957 3.02894 17.0711C3.95752 17.9997 5.05992 18.7362 6.27317 19.2388C7.48643 19.7413 8.78679 20 10.1 20C12.7522 20 15.2957 18.9464 17.1711 17.0711C19.0464 15.1957 20.1 12.6522 20.1 10C20.1 8.68678 19.8413 7.38642 19.3388 6.17317C18.8363 4.95991 18.0997 3.85752 17.1711 2.92893C16.2425 2.00035 15.1401 1.26375 13.9268 0.761205C12.7136 0.258658 11.4132 0 10.1 0Z" fill="black"/>
</svg>
