<svg width="19" height="20" viewBox="0 0 19 20" fill="none" xmlns="http://www.w3.org/2000/svg">
<path d="M9.64993 12C9.3666 12 9.12893 11.904 8.93693 11.712C8.74493 11.52 8.64927 11.2827 8.64993 11C8.64993 10.7167 8.74593 10.479 8.93793 10.287C9.12993 10.095 9.36727 9.99933 9.64993 10C9.93327 10 10.1709 10.096 10.3629 10.288C10.5549 10.48 10.6506 10.7173 10.6499 11C10.6499 11.2833 10.5539 11.521 10.3619 11.713C10.1699 11.905 9.9326 12.0007 9.64993 12ZM5.64993 12C5.3666 12 5.12893 11.904 4.93693 11.712C4.74493 11.52 4.64927 11.2827 4.64993 11C4.64993 10.7167 4.74593 10.479 4.93793 10.287C5.12993 10.095 5.36727 9.99933 5.64993 10C5.93327 10 6.17093 10.096 6.36293 10.288C6.55493 10.48 6.6506 10.7173 6.64993 11C6.64993 11.2833 6.55393 11.521 6.36193 11.713C6.16993 11.905 5.9326 12.0007 5.64993 12ZM13.6499 12C13.3666 12 13.1289 11.904 12.9369 11.712C12.7449 11.52 12.6493 11.2827 12.6499 11C12.6499 10.7167 12.7459 10.479 12.9379 10.287C13.1299 10.095 13.3673 9.99933 13.6499 10C13.9333 10 14.1709 10.096 14.3629 10.288C14.5549 10.48 14.6506 10.7173 14.6499 11C14.6499 11.2833 14.5539 11.521 14.3619 11.713C14.1699 11.905 13.9326 12.0007 13.6499 12ZM9.64993 16C9.3666 16 9.12893 15.904 8.93693 15.712C8.74493 15.52 8.64927 15.2827 8.64993 15C8.64993 14.7167 8.74593 14.479 8.93793 14.287C9.12993 14.095 9.36727 13.9993 9.64993 14C9.93327 14 10.1709 14.096 10.3629 14.288C10.5549 14.48 10.6506 14.7173 10.6499 15C10.6499 15.2833 10.5539 15.521 10.3619 15.713C10.1699 15.905 9.9326 16.0007 9.64993 16ZM5.64993 16C5.3666 16 5.12893 15.904 4.93693 15.712C4.74493 15.52 4.64927 15.2827 4.64993 15C4.64993 14.7167 4.74593 14.479 4.93793 14.287C5.12993 14.095 5.36727 13.9993 5.64993 14C5.93327 14 6.17093 14.096 6.36293 14.288C6.55493 14.48 6.6506 14.7173 6.64993 15C6.64993 15.2833 6.55393 15.521 6.36193 15.713C6.16993 15.905 5.9326 16.0007 5.64993 16ZM13.6499 16C13.3666 16 13.1289 15.904 12.9369 15.712C12.7449 15.52 12.6493 15.2827 12.6499 15C12.6499 14.7167 12.7459 14.479 12.9379 14.287C13.1299 14.095 13.3673 13.9993 13.6499 14C13.9333 14 14.1709 14.096 14.3629 14.288C14.5549 14.48 14.6506 14.7173 14.6499 15C14.6499 15.2833 14.5539 15.521 14.3619 15.713C14.1699 15.905 13.9326 16.0007 13.6499 16ZM2.64993 20C2.09993 20 1.62893 19.804 1.23693 19.412C0.844933 19.02 0.649266 18.5493 0.649933 18V4C0.649933 3.45 0.845933 2.979 1.23793 2.587C1.62993 2.195 2.1006 1.99933 2.64993 2H3.64993V0H5.64993V2H13.6499V0H15.6499V2H16.6499C17.1999 2 17.6709 2.196 18.0629 2.588C18.4549 2.98 18.6506 3.45067 18.6499 4V18C18.6499 18.55 18.4539 19.021 18.0619 19.413C17.6699 19.805 17.1993 20.0007 16.6499 20H2.64993ZM2.64993 18H16.6499V8H2.64993V18Z" fill="black"/>
</svg>
