<svg width="21" height="16" viewBox="0 0 21 16" fill="none" xmlns="http://www.w3.org/2000/svg">
<path d="M20.6999 2V14C20.6999 14.55 20.5039 15.021 20.1119 15.413C19.7199 15.805 19.2493 16.0007 18.6999 16H2.69992C2.14992 16 1.67892 15.804 1.28692 15.412C0.89492 15.02 0.699254 14.5493 0.69992 14V2C0.69992 1.45 0.89592 0.979002 1.28792 0.587002C1.67992 0.195002 2.15059 -0.000664969 2.69992 1.69779e-06H18.6999C19.2499 1.69779e-06 19.7209 0.196001 20.1129 0.588001C20.5049 0.980001 20.7006 1.45067 20.6999 2ZM2.69992 4H18.6999V2H2.69992V4ZM2.69992 8V14H18.6999V8H2.69992Z" fill="black"/>
</svg>
