<svg width="21" height="14" viewBox="0 0 21 14" fill="none" xmlns="http://www.w3.org/2000/svg">
<path d="M6.46997 10L3.49997 13C3.16997 13.3 2.72997 13.5 2.24997 13.5C1.78584 13.5 1.34072 13.3156 1.01253 12.9874C0.684344 12.6592 0.499969 12.2141 0.499969 11.75V11.5L1.49997 4.12C1.60078 2.99563 2.11831 1.94957 2.95093 1.18726C3.78355 0.424955 4.87109 0.00147856 5.99997 0H15C17.36 0 19.29 1.81 19.5 4.12L20.5 11.5V11.75C20.5 12.2141 20.3156 12.6592 19.9874 12.9874C19.6592 13.3156 19.2141 13.5 18.75 13.5C18.27 13.5 17.83 13.3 17.5 13L14.53 10H6.46997ZM5.49997 2V4H3.49997V5H5.49997V7H6.49997V5H8.49997V4H6.49997V2H5.49997ZM15 2C14.8011 2 14.6103 2.07902 14.4696 2.21967C14.329 2.36032 14.25 2.55109 14.25 2.75C14.25 2.94891 14.329 3.13968 14.4696 3.28033C14.6103 3.42098 14.8011 3.5 15 3.5C15.1989 3.5 15.3896 3.42098 15.5303 3.28033C15.671 3.13968 15.75 2.94891 15.75 2.75C15.75 2.55109 15.671 2.36032 15.5303 2.21967C15.3896 2.07902 15.1989 2 15 2ZM13.25 3.75C13.0511 3.75 12.8603 3.82902 12.7196 3.96967C12.579 4.11032 12.5 4.30109 12.5 4.5C12.5 4.69891 12.579 4.88968 12.7196 5.03033C12.8603 5.17098 13.0511 5.25 13.25 5.25C13.4489 5.25 13.6396 5.17098 13.7803 5.03033C13.921 4.88968 14 4.69891 14 4.5C14 4.30109 13.921 4.11032 13.7803 3.96967C13.6396 3.82902 13.4489 3.75 13.25 3.75ZM16.75 3.75C16.5511 3.75 16.3603 3.82902 16.2196 3.96967C16.079 4.11032 16 4.30109 16 4.5C16 4.69891 16.079 4.88968 16.2196 5.03033C16.3603 5.17098 16.5511 5.25 16.75 5.25C16.9489 5.25 17.1396 5.17098 17.2803 5.03033C17.421 4.88968 17.5 4.69891 17.5 4.5C17.5 4.30109 17.421 4.11032 17.2803 3.96967C17.1396 3.82902 16.9489 3.75 16.75 3.75ZM15 5.5C14.8011 5.5 14.6103 5.57902 14.4696 5.71967C14.329 5.86032 14.25 6.05109 14.25 6.25C14.25 6.44891 14.329 6.63968 14.4696 6.78033C14.6103 6.92098 14.8011 7 15 7C15.1989 7 15.3896 6.92098 15.5303 6.78033C15.671 6.63968 15.75 6.44891 15.75 6.25C15.75 6.05109 15.671 5.86032 15.5303 5.71967C15.3896 5.57902 15.1989 5.5 15 5.5Z" fill="black"/>
</svg>
