<svg width="19" height="18" viewBox="0 0 19 18" fill="none" xmlns="http://www.w3.org/2000/svg">
<path d="M2.29999 18C1.74999 18 1.27899 17.804 0.886989 17.412C0.494989 17.02 0.299323 16.5493 0.299989 16V3.50001C0.299989 3.25001 0.341656 3.02501 0.424989 2.82501C0.508323 2.62501 0.616656 2.43334 0.74999 2.25001L2.14999 0.550007C2.28332 0.366674 2.44999 0.229007 2.64999 0.137007C2.84999 0.0450073 3.06666 -0.000659472 3.29999 7.19423e-06H15.3C15.5333 7.19423e-06 15.75 0.045674 15.95 0.137007C16.15 0.228341 16.3167 0.366007 16.45 0.550007L17.85 2.25001C17.9833 2.43334 18.0917 2.62501 18.175 2.82501C18.2583 3.02501 18.3 3.25001 18.3 3.50001V16C18.3 16.55 18.104 17.021 17.712 17.413C17.32 17.805 16.8493 18.0007 16.3 18H2.29999ZM2.69999 3.00001H15.9L15.05 2.00001H3.54999L2.69999 3.00001ZM9.29999 15L13.3 11L11.9 9.60001L10.3 11.2V7.00001H8.29999V11.2L6.69999 9.60001L5.29999 11L9.29999 15Z" fill="black"/>
</svg>
