<svg width="21" height="20" viewBox="0 0 21 20" fill="none" xmlns="http://www.w3.org/2000/svg">
<path d="M6.64991 0H15.0499C18.2499 0 20.8499 2.6 20.8499 5.8V14.2C20.8499 15.7383 20.2388 17.2135 19.1511 18.3012C18.0634 19.3889 16.5882 20 15.0499 20H6.64991C3.44991 20 0.849915 17.4 0.849915 14.2V5.8C0.849915 4.26174 1.46098 2.78649 2.5487 1.69878C3.63641 0.61107 5.11166 0 6.64991 0ZM6.44991 2C5.49514 2 4.57946 2.37928 3.90433 3.05442C3.2292 3.72955 2.84991 4.64522 2.84991 5.6V14.4C2.84991 16.39 4.45991 18 6.44991 18H15.2499C16.2047 18 17.1204 17.6207 17.7955 16.9456C18.4706 16.2705 18.8499 15.3548 18.8499 14.4V5.6C18.8499 3.61 17.2399 2 15.2499 2H6.44991ZM16.0999 3.5C16.4314 3.5 16.7494 3.6317 16.9838 3.86612C17.2182 4.10054 17.3499 4.41848 17.3499 4.75C17.3499 5.08152 17.2182 5.39946 16.9838 5.63388C16.7494 5.8683 16.4314 6 16.0999 6C15.7684 6 15.4505 5.8683 15.216 5.63388C14.9816 5.39946 14.8499 5.08152 14.8499 4.75C14.8499 4.41848 14.9816 4.10054 15.216 3.86612C15.4505 3.6317 15.7684 3.5 16.0999 3.5ZM10.8499 5C12.176 5 13.4478 5.52678 14.3854 6.46447C15.3231 7.40215 15.8499 8.67392 15.8499 10C15.8499 11.3261 15.3231 12.5979 14.3854 13.5355C13.4478 14.4732 12.176 15 10.8499 15C9.52383 15 8.25206 14.4732 7.31438 13.5355C6.3767 12.5979 5.84991 11.3261 5.84991 10C5.84991 8.67392 6.3767 7.40215 7.31438 6.46447C8.25206 5.52678 9.52383 5 10.8499 5ZM10.8499 7C10.0543 7 9.2912 7.31607 8.72859 7.87868C8.16598 8.44129 7.84991 9.20435 7.84991 10C7.84991 10.7956 8.16598 11.5587 8.72859 12.1213C9.2912 12.6839 10.0543 13 10.8499 13C11.6456 13 12.4086 12.6839 12.9712 12.1213C13.5338 11.5587 13.8499 10.7956 13.8499 10C13.8499 9.20435 13.5338 8.44129 12.9712 7.87868C12.4086 7.31607 11.6456 7 10.8499 7Z" fill="black"/>
</svg>
