<svg width="14" height="22" viewBox="0 0 14 22" fill="none" xmlns="http://www.w3.org/2000/svg">
<path d="M10.75 0H2.75C2.08696 0 1.45107 0.263392 0.982233 0.732233C0.513392 1.20107 0.25 1.83696 0.25 2.5V19.5C0.25 20.163 0.513392 20.7989 0.982233 21.2678C1.45107 21.7366 2.08696 22 2.75 22H10.75C11.413 22 12.0489 21.7366 12.5178 21.2678C12.9866 20.7989 13.25 20.163 13.25 19.5V2.5C13.25 1.83696 12.9866 1.20107 12.5178 0.732233C12.0489 0.263392 11.413 0 10.75 0ZM6.75 21C5.92 21 5.25 20.33 5.25 19.5C5.25 18.67 5.92 18 6.75 18C7.58 18 8.25 18.67 8.25 19.5C8.25 20.33 7.58 21 6.75 21ZM11.25 17H2.25V3H11.25V17Z" fill="black"/>
</svg>
