<svg width="15" height="18" viewBox="0 0 15 18" fill="none" xmlns="http://www.w3.org/2000/svg">
<path d="M2.59995 18V15H0.599945V13H2.59995V11H0.599945V9H2.59995V0H9.09995C10.6333 0 11.9333 0.533333 12.9999 1.6C14.0666 2.66667 14.5999 3.96667 14.5999 5.5C14.5999 7.03333 14.0666 8.33333 12.9999 9.4C11.9333 10.4667 10.6333 11 9.09995 11H4.59995V13H8.59995V15H4.59995V18H2.59995ZM4.59995 9H9.09995C10.0666 9 10.8916 8.65833 11.5749 7.975C12.2583 7.29167 12.5999 6.46667 12.5999 5.5C12.5999 4.53333 12.2583 3.70833 11.5749 3.025C10.8916 2.34167 10.0666 2 9.09995 2H4.59995V9Z" fill="black"/>
</svg>
