<svg width="21" height="20" viewBox="0 0 21 20" fill="none" xmlns="http://www.w3.org/2000/svg">
<path d="M10.35 20C8.98334 20 7.69167 19.7373 6.47501 19.212C5.25834 18.6867 4.19567 17.97 3.28701 17.062C2.37901 16.154 1.66234 15.0917 1.13701 13.875C0.611674 12.6583 0.349341 11.3667 0.350007 10C0.350007 8.61667 0.612674 7.32067 1.13801 6.112C1.66334 4.90333 2.38001 3.84533 3.28801 2.938C4.19601 2.02933 5.25801 1.31267 6.47401 0.788C7.69001 0.263333 8.98201 0.000666667 10.35 0C11.7333 0 13.0293 0.262667 14.238 0.788C15.4467 1.31333 16.5047 2.03 17.412 2.938C18.3207 3.846 19.0373 4.90433 19.562 6.113C20.0867 7.32167 20.3493 8.61733 20.35 10V11.45C20.35 12.4333 20.0127 13.271 19.338 13.963C18.6633 14.655 17.834 15.0007 16.85 15C16.25 15 15.6917 14.8667 15.175 14.6C14.6583 14.3333 14.2333 13.9833 13.9 13.55C13.45 14 12.9207 14.3543 12.312 14.613C11.7033 14.8717 11.0493 15.0007 10.35 15C8.96667 15 7.78734 14.5123 6.81201 13.537C5.83667 12.5617 5.34934 11.3827 5.35001 10C5.35001 8.61667 5.83767 7.43733 6.81301 6.462C7.78834 5.48667 8.96734 4.99933 10.35 5C11.7333 5 12.9127 5.48767 13.888 6.463C14.8633 7.43833 15.3507 8.61733 15.35 10V11.45C15.35 11.9333 15.5 12.3123 15.8 12.587C16.1 12.8617 16.45 12.9993 16.85 13C17.25 13 17.6 12.8623 17.9 12.587C18.2 12.3117 18.35 11.9327 18.35 11.45V10C18.35 7.81667 17.5623 5.93733 15.987 4.362C14.4117 2.78667 12.5327 1.99933 10.35 2C8.16667 2 6.28734 2.78767 4.71201 4.363C3.13667 5.93833 2.34934 7.81733 2.35001 10C2.35001 12.1833 3.13767 14.0627 4.71301 15.638C6.28834 17.2133 8.16734 18.0007 10.35 18H15.35V20H10.35ZM10.35 13C11.1833 13 11.8917 12.7083 12.475 12.125C13.0583 11.5417 13.35 10.8333 13.35 10C13.35 9.16667 13.0583 8.45833 12.475 7.875C11.8917 7.29167 11.1833 7 10.35 7C9.51667 7 8.80834 7.29167 8.22501 7.875C7.64167 8.45833 7.35001 9.16667 7.35001 10C7.35001 10.8333 7.64167 11.5417 8.22501 12.125C8.80834 12.7083 9.51667 13 10.35 13Z" fill="black"/>
</svg>
