<svg width="21" height="20" viewBox="0 0 21 20" fill="none" xmlns="http://www.w3.org/2000/svg">
<path d="M10.9499 0C5.42989 0 0.94989 4.48 0.94989 10C0.94989 15.52 5.42989 20 10.9499 20C16.4699 20 20.9499 15.52 20.9499 10C20.9499 4.48 16.4699 0 10.9499 0ZM15.5899 6.8C15.4399 8.38 14.7899 12.22 14.4599 13.99C14.3199 14.74 14.0399 14.99 13.7799 15.02C13.1999 15.07 12.7599 14.64 12.1999 14.27C11.3199 13.69 10.8199 13.33 9.96989 12.77C8.97989 12.12 9.61989 11.76 10.1899 11.18C10.3399 11.03 12.8999 8.7 12.9499 8.49C12.9568 8.45819 12.9559 8.42517 12.9472 8.3938C12.9385 8.36244 12.9222 8.33367 12.8999 8.31C12.8399 8.26 12.7599 8.28 12.6899 8.29C12.5999 8.31 11.1999 9.24 8.46989 11.08C8.06989 11.35 7.70989 11.49 7.38989 11.48C7.02989 11.47 6.34989 11.28 5.83989 11.11C5.20989 10.91 4.71989 10.8 4.75989 10.45C4.77989 10.27 5.02989 10.09 5.49989 9.9C8.41989 8.63 10.3599 7.79 11.3299 7.39C14.1099 6.23 14.6799 6.03 15.0599 6.03C15.1399 6.03 15.3299 6.05 15.4499 6.15C15.5499 6.23 15.5799 6.34 15.5899 6.42C15.5799 6.48 15.5999 6.66 15.5899 6.8Z" fill="black"/>
</svg>
