<svg width="16" height="18" viewBox="0 0 16 18" fill="none" xmlns="http://www.w3.org/2000/svg">
<path d="M12.4999 2.82C11.8163 2.03962 11.4396 1.03743 11.4399 0H8.34991V12.4C8.32607 13.071 8.04278 13.7066 7.55967 14.1729C7.07657 14.6393 6.43135 14.8999 5.75991 14.9C4.33991 14.9 3.15991 13.74 3.15991 12.3C3.15991 10.58 4.81991 9.29 6.52991 9.82V6.66C3.07991 6.2 0.059906 8.88 0.059906 12.3C0.059906 15.63 2.81991 18 5.74991 18C8.88991 18 11.4399 15.45 11.4399 12.3V6.01C12.6929 6.90985 14.1973 7.39265 15.7399 7.39V4.3C15.7399 4.3 13.8599 4.39 12.4999 2.82Z" fill="black"/>
</svg>
