<svg width="24" height="24" viewBox="0 0 24 24" fill="none" xmlns="http://www.w3.org/2000/svg">
<path d="M9.48888 0.00400708L10.2179 0.00100708H13.7819L14.5119 0.00400708L15.4259 0.0140071L15.8589 0.0210071L16.2769 0.0320071L16.6799 0.0460071L17.0679 0.0620071L17.4419 0.0830071L17.8019 0.108007L18.1469 0.138007L18.4799 0.171007C20.2199 0.367007 21.4129 0.787007 22.3129 1.68701C23.2129 2.58701 23.6329 3.77901 23.8289 5.52001L23.8629 5.85301L23.8919 6.19901L23.9169 6.55901L23.9369 6.93201L23.9619 7.52001L23.9739 7.93001L23.9869 8.57401L23.9959 9.48901L23.9999 10.469L23.9989 13.782L23.9959 14.512L23.9859 15.426L23.9789 15.859L23.9679 16.277L23.9539 16.68L23.9379 17.068L23.9169 17.442L23.8919 17.802L23.8619 18.147L23.8289 18.48C23.6329 20.22 23.2129 21.413 22.3129 22.313C21.4129 23.213 20.2209 23.633 18.4799 23.829L18.1469 23.863L17.8009 23.892L17.4409 23.917L17.0679 23.937L16.4799 23.962L16.0699 23.974L15.4259 23.987L14.5109 23.996L13.5309 24L10.2179 23.999L9.48788 23.996L8.57388 23.986L8.14088 23.979L7.72288 23.968L7.31988 23.954L6.93188 23.938L6.55788 23.917L6.19788 23.892L5.85288 23.862L5.51988 23.829C3.77988 23.633 2.58688 23.213 1.68688 22.313C0.786878 21.413 0.366878 20.221 0.170878 18.48L0.136878 18.147L0.107878 17.801L0.0828779 17.441L0.0628779 17.068L0.0378779 16.48L0.0258779 16.07L0.0128779 15.426L0.00387793 14.511L-0.00012207 13.531L0.00087793 10.218L0.00387793 9.48801L0.0138779 8.57401L0.0208779 8.14101L0.0318779 7.72301L0.0458779 7.32001L0.0618779 6.93201L0.0828779 6.55801L0.107878 6.19801L0.137878 5.85301L0.170878 5.52001C0.366878 3.78001 0.786878 2.58701 1.68688 1.68701C2.58688 0.787007 3.77888 0.367007 5.51988 0.171007L5.85288 0.137007L6.19888 0.108007L6.55888 0.0830071L6.93188 0.0630071L7.51988 0.0380071L7.92988 0.0260071L8.57388 0.0130071L9.48888 0.00400708ZM6.78988 7.30001H4.04988C4.17988 13.54 7.29988 17.29 12.7699 17.29H13.0799V13.72C15.0899 13.92 16.6099 15.39 17.2199 17.29H20.0599C19.2799 14.45 17.2299 12.88 15.9499 12.28C17.2299 11.54 19.0299 9.74001 19.4599 7.30001H16.8799C16.3199 9.28001 14.6599 11.08 13.0799 11.25V7.30001H10.4999V14.22C8.89988 13.82 6.87988 11.88 6.78988 7.30001Z" fill="black"/>
</svg>
