<svg width="20" height="15" viewBox="0 0 20 15" fill="none" xmlns="http://www.w3.org/2000/svg">
<path d="M0.117004 0.195801H19.8559V15H0.117004V0.195801Z" fill="#DE2910"/>
<path d="M2.48568 5.67334L3.81805 1.67621L5.15041 5.67334L1.59744 3.23065H6.03865L2.48568 5.67334Z" fill="#FFDE00"/>
<path d="M8.26458 1.75278L6.89341 2.05664L7.80803 0.99084L7.71832 2.42527L6.95741 1.15537L8.26458 1.75278Z" fill="#FFDE00"/>
<path d="M9.64842 3.50658L8.26673 3.25486L9.52311 2.62721L8.88411 3.91457L8.67527 2.44896L9.64842 3.50658Z" fill="#FFDE00"/>
<path d="M9.44674 5.96712L8.28785 5.17376L9.69097 5.11311L8.58249 6.02791L8.98955 4.60455L9.44674 5.96712Z" fill="#FFDE00"/>
<path d="M7.70382 7.57446L6.94127 6.39506L8.25894 6.88105L6.88315 7.29673L7.80836 6.14104L7.70382 7.57446Z" fill="#FFDE00"/>
</svg>
