<svg width="20" height="16" viewBox="0 0 20 16" fill="none" xmlns="http://www.w3.org/2000/svg">
<path fill-rule="evenodd" clip-rule="evenodd" d="M0.103058 0.5979H19.842V15.4021H0.103058V0.5979Z" fill="#6FDCFF"/>
<path fill-rule="evenodd" clip-rule="evenodd" d="M1.95974 15.0011C2.06151 15.0998 2.02759 15.2632 2.30825 15.2416C2.73387 15.2416 2.74621 14.9826 2.74621 14.8006C2.74621 14.6186 2.10778 14.3657 2.07694 14.0974C2.04609 13.8291 2.22498 13.7581 2.37302 13.7581C2.51798 13.7581 2.61976 13.8414 2.61976 13.9154C2.61976 13.9895 2.5519 14.0141 2.44704 14.0141C2.34218 14.0141 2.4933 13.9617 2.40386 13.9216C2.31442 13.8815 2.25582 13.9833 2.25582 14.045C2.25582 14.1128 2.47788 14.1313 2.62593 14.0851C2.65677 14.23 2.6691 14.2393 2.46246 14.486C2.6105 14.3904 2.62284 14.3688 2.7863 14.4243C2.62284 14.2825 2.74621 13.9987 2.74929 13.9278C2.75238 13.8568 2.71845 13.7705 2.65677 13.7273C2.53648 13.6193 2.28049 13.6132 2.12628 13.6841C1.90114 13.7828 1.8888 14.0789 1.9474 14.1776L2.57041 14.8068C2.61359 14.8808 2.63209 15.0905 2.36685 15.0998C2.08927 15.1214 1.99058 14.742 1.94123 14.6155C1.87646 14.7543 1.80244 15.1337 1.52178 15.1121C1.25654 15.1029 1.20719 14.8962 1.25037 14.8191L1.8888 14.1714C1.95048 14.0727 1.93815 13.7766 1.713 13.6779C1.55879 13.607 1.3028 13.6163 1.1856 13.7211C1.11775 13.7643 1.08074 13.8476 1.0869 13.9216C1.09307 13.9956 1.21336 14.2763 1.05298 14.4151C1.21336 14.3626 1.22878 14.3842 1.37682 14.4768C1.17018 14.2331 1.1856 14.2239 1.21336 14.0758C1.3614 14.1252 1.58346 14.1067 1.58346 14.0419C1.58346 13.9771 1.52178 13.8692 1.43234 13.9123C1.34598 13.9555 1.49402 14.008 1.38916 14.008C1.28738 14.008 1.21336 13.9864 1.21336 13.9154C1.21336 13.8445 1.31514 13.752 1.46318 13.752C1.61122 13.752 1.78702 13.826 1.75618 14.0943C1.72534 14.3626 1.07765 14.6526 1.07765 14.8345C1.07765 15.0196 1.12083 15.2386 1.54645 15.2386C1.82403 15.2601 1.85796 15.0967 1.95974 14.998V15.0011Z" fill="#FFE400"/>
<path fill-rule="evenodd" clip-rule="evenodd" d="M1.92581 11.1859C2.02758 11.0872 2.11086 10.7973 2.38844 10.8158C2.81406 10.8158 2.97444 11.0533 2.97444 11.2352C2.97444 11.4172 2.11086 12.9007 2.08002 13.169C2.04917 13.4374 2.22806 13.5114 2.37302 13.5114C2.52106 13.5114 2.62284 13.4281 2.62284 13.351C2.62284 13.2739 2.54882 13.2585 2.44704 13.2585C2.34526 13.2585 2.49022 13.3109 2.40386 13.351C2.3175 13.3911 2.25582 13.2893 2.25582 13.2246C2.25582 13.1598 2.47788 13.1382 2.62592 13.1875C2.65368 13.0426 2.66602 13.0333 2.46246 12.7866C2.6105 12.8791 2.62284 12.9038 2.7863 12.8483C2.62284 12.9902 2.74312 13.2708 2.74929 13.3418C2.75546 13.4127 2.71845 13.5021 2.65368 13.5453C2.53648 13.6533 2.27741 13.6563 2.12319 13.5885C1.90113 13.4867 1.88879 13.1937 1.94739 13.095L2.7863 11.2877C2.83256 11.2137 2.71536 10.9669 2.45012 10.9577C2.17254 10.9361 2.07693 11.2291 2.02758 11.3555L2.40694 11.3247C2.40694 11.3247 2.42236 11.3864 2.40694 11.4234C2.27966 11.4327 2.15301 11.4492 2.02758 11.4727L2.01216 11.6639H2.19722L2.18488 11.7503C2.18488 11.7503 2.02758 11.738 2.01216 11.7503C1.99674 11.7596 1.98132 11.9415 1.98132 11.9415C1.98132 11.9415 1.95048 11.9539 1.91964 11.9539C1.8888 11.9539 1.85795 11.9415 1.85795 11.9415C1.85795 11.9415 1.84562 11.7596 1.8302 11.7503C1.81477 11.738 1.65748 11.7503 1.65748 11.7503L1.64206 11.6639H1.8302L1.81477 11.4727C1.81477 11.4727 1.62972 11.4357 1.43542 11.4234C1.42308 11.3864 1.43542 11.3278 1.43542 11.3278L1.81477 11.3555C1.76543 11.2291 1.66982 10.9361 1.39224 10.9546C1.127 10.9669 1.0098 11.2137 1.05297 11.2877L1.89188 13.095C1.95048 13.1906 1.93814 13.4867 1.71608 13.5885C1.56187 13.6563 1.3028 13.6502 1.1856 13.5453C1.12083 13.5021 1.08382 13.4158 1.08998 13.3448C1.09615 13.2739 1.21335 12.9871 1.05297 12.8514C1.21644 12.9038 1.23186 12.8822 1.37682 12.7866C1.17326 13.0333 1.1856 13.0426 1.21644 13.1875C1.3614 13.1382 1.58346 13.1567 1.58346 13.2246C1.58346 13.2862 1.52177 13.3942 1.43542 13.351C1.34906 13.3078 1.4971 13.2585 1.39224 13.2585C1.29046 13.2585 1.21644 13.277 1.21644 13.351C1.21644 13.425 1.31822 13.5114 1.46317 13.5114C1.60813 13.5114 1.78702 13.4374 1.75926 13.1721C1.72842 12.9038 0.864838 11.4141 0.864838 11.2352C0.864838 11.0502 1.02522 10.8189 1.45084 10.8189C1.72842 10.7973 1.8302 11.0872 1.92889 11.1859H1.92581Z" fill="#FFE400"/>
<path fill-rule="evenodd" clip-rule="evenodd" d="M1.92581 10.4488C2.02758 10.5475 2.11086 10.8374 2.38844 10.8189C2.81406 10.8189 2.97444 10.5814 2.97444 10.3994C2.97444 10.2174 2.11086 8.73394 2.08002 8.46561C2.04917 8.19728 2.22806 8.12326 2.37302 8.12326C2.52106 8.12326 2.62284 8.20654 2.62284 8.28364C2.62284 8.36075 2.54882 8.37617 2.44704 8.37617C2.34526 8.37617 2.49022 8.32682 2.40386 8.28364C2.3175 8.24046 2.25582 8.34533 2.25582 8.41009C2.25582 8.47486 2.47788 8.49645 2.62592 8.44711C2.65368 8.59206 2.66602 8.60132 2.46246 8.84805C2.6105 8.75553 2.62284 8.73085 2.7863 8.78637C2.62284 8.64449 2.74312 8.36383 2.74929 8.29289C2.75546 8.22196 2.71845 8.13252 2.65368 8.08934C2.53648 7.98447 2.27741 7.97831 2.12319 8.04616C1.90113 8.14794 1.88879 8.44094 1.94739 8.53963L2.7863 10.3439C2.83256 10.4179 2.71536 10.6647 2.45012 10.6739C2.17254 10.6955 2.07693 10.4025 2.02758 10.276L2.40694 10.3069C2.40694 10.3069 2.42236 10.2452 2.40694 10.2082C2.27966 10.1989 2.15301 10.1824 2.02758 10.1588L2.01216 9.96762H2.19722L2.18488 9.88126C2.18488 9.88126 2.02758 9.8936 2.01216 9.88126C1.99674 9.87201 1.98132 9.69004 1.98132 9.69004C1.98132 9.69004 1.95048 9.6777 1.91964 9.6777C1.8888 9.6777 1.85795 9.69004 1.85795 9.69004C1.85795 9.69004 1.84562 9.87201 1.8302 9.88126C1.81477 9.8936 1.65748 9.88126 1.65748 9.88126L1.64206 9.96762H1.8302L1.81477 10.1588C1.81477 10.1588 1.62972 10.1959 1.43542 10.2082C1.42308 10.2452 1.43542 10.3038 1.43542 10.3038L1.81477 10.276C1.76543 10.4025 1.66982 10.6955 1.39224 10.677C1.127 10.6647 1.0098 10.4179 1.05297 10.3439L1.89188 8.53963C1.95048 8.44094 1.93814 8.14794 1.71608 8.04616C1.56187 7.97831 1.3028 7.98447 1.1856 8.08934C1.12083 8.13252 1.08382 8.21887 1.08998 8.28981C1.09615 8.36075 1.21335 8.64449 1.05297 8.78328C1.21644 8.73085 1.23186 8.75244 1.37682 8.84805C1.17326 8.60132 1.1856 8.59206 1.21644 8.44711C1.3614 8.49645 1.58346 8.47795 1.58346 8.41009C1.58346 8.34841 1.52177 8.24046 1.43542 8.28364C1.34906 8.32682 1.4971 8.37617 1.39224 8.37617C1.29046 8.37617 1.21644 8.35766 1.21644 8.28364C1.21644 8.20962 1.31822 8.12326 1.46317 8.12326C1.60813 8.12326 1.78702 8.19728 1.75926 8.46253C1.72842 8.73085 0.864838 10.2205 0.864838 10.3994C0.864838 10.5845 1.02522 10.8158 1.45084 10.8158C1.72842 10.8374 1.8302 10.5475 1.92889 10.4488H1.92581Z" fill="#FFE400"/>
<path fill-rule="evenodd" clip-rule="evenodd" d="M1.92581 5.55107C2.02758 5.45237 2.11086 5.16246 2.38844 5.18096C2.81406 5.18096 2.97444 5.41845 2.97444 5.60041C2.97444 5.78238 2.11086 7.26589 2.08002 7.5373C2.04917 7.80254 2.22806 7.87656 2.37302 7.87656C2.52106 7.87656 2.62284 7.79329 2.62284 7.71927C2.62284 7.64524 2.54882 7.62057 2.44704 7.62057C2.34526 7.62057 2.49022 7.67609 2.40386 7.71927C2.3175 7.76244 2.25582 7.6545 2.25582 7.58973C2.25582 7.52804 2.47788 7.50337 2.62592 7.55272C2.65368 7.40776 2.66602 7.39851 2.46246 7.15177C2.6105 7.24738 2.62284 7.26897 2.7863 7.21346C2.62284 7.35533 2.74312 7.63908 2.74929 7.70693C2.75546 7.77478 2.71845 7.86731 2.65368 7.91049C2.53648 8.01843 2.27741 8.02152 2.12319 7.95367C1.90113 7.85189 1.88879 7.55889 1.94739 7.46019L2.7863 5.65593C2.83256 5.58191 2.71536 5.33517 2.45012 5.32592C2.17254 5.30433 2.07693 5.59733 2.02758 5.72378L2.40694 5.69294C2.40694 5.69294 2.42236 5.75462 2.40694 5.79163C2.20955 5.80397 2.02758 5.84098 2.02758 5.84098L2.01216 6.0322H2.19722L2.18488 6.11856C2.18488 6.11856 2.02758 6.10931 2.01216 6.11856C1.99674 6.12781 1.98132 6.31287 1.98132 6.31287C1.98132 6.31287 1.95048 6.32212 1.91964 6.32212C1.8888 6.32212 1.85795 6.31287 1.85795 6.31287C1.85795 6.31287 1.84562 6.12781 1.8302 6.11856C1.81477 6.10931 1.65748 6.11856 1.65748 6.11856L1.64206 6.0322H1.8302L1.81477 5.84098C1.81477 5.84098 1.62972 5.80397 1.43542 5.79163C1.42308 5.75462 1.43542 5.69602 1.43542 5.69602L1.81477 5.72378C1.76543 5.59733 1.66982 5.30433 1.39224 5.32283C1.127 5.33517 1.0098 5.58191 1.05297 5.65593L1.89188 7.46019C1.95048 7.55889 1.93814 7.85189 1.71608 7.95367C1.56187 8.02152 1.3028 8.01535 1.1856 7.91049C1.12083 7.86731 1.08382 7.78095 1.08998 7.71001C1.09615 7.63908 1.21335 7.35533 1.05297 7.21654C1.21644 7.26897 1.23186 7.24738 1.37682 7.15177C1.17326 7.39851 1.1856 7.40776 1.21644 7.55272C1.3614 7.50337 1.58346 7.52496 1.58346 7.58973C1.58346 7.65141 1.52177 7.75936 1.43542 7.71618C1.34906 7.67609 1.4971 7.62366 1.39224 7.62366C1.29046 7.62366 1.21644 7.64216 1.21644 7.71618C1.21644 7.7902 1.31822 7.87656 1.46317 7.87656C1.60813 7.87656 1.78702 7.80254 1.75926 7.5373C1.72842 7.26897 0.864838 5.78238 0.864838 5.60041C0.864838 5.41845 1.02522 5.18405 1.45084 5.18405C1.72842 5.16246 1.8302 5.45237 1.92889 5.55415L1.92581 5.55107Z" fill="#FFE400"/>
<path fill-rule="evenodd" clip-rule="evenodd" d="M1.92581 4.81393C2.02758 4.91263 2.11086 5.20563 2.38844 5.18404C2.81406 5.18404 2.97444 4.94655 2.97444 4.76458C2.97444 4.58262 2.11086 3.09911 2.08002 2.83078C2.04917 2.56246 2.22806 2.48844 2.37302 2.48844C2.52106 2.48844 2.62284 2.57479 2.62284 2.64882C2.62284 2.72284 2.54882 2.74443 2.44704 2.74443C2.34526 2.74443 2.49022 2.69199 2.40386 2.64882C2.3175 2.60564 2.25582 2.7105 2.25582 2.77527C2.25582 2.84004 2.47788 2.86163 2.62592 2.81228C2.65368 2.95724 2.66602 2.96649 2.46246 3.21323C2.6105 3.1207 2.62284 3.09603 2.7863 3.15154C2.62284 3.01275 2.74312 2.729 2.74929 2.65807C2.75546 2.58713 2.71845 2.49769 2.65368 2.45451C2.53648 2.34965 2.27741 2.34348 2.12319 2.41442C1.90113 2.51311 1.88879 2.80919 1.94739 2.9048L2.7863 4.71215C2.83256 4.78617 2.71536 5.03291 2.45012 5.04525C2.17254 5.06375 2.07693 4.77384 2.02758 4.6443L2.40694 4.67514C2.40694 4.67514 2.42236 4.61346 2.40694 4.57645C2.27973 4.56807 2.15308 4.55262 2.02758 4.53018L2.01216 4.33588H2.19722L2.18488 4.24952C2.18488 4.24952 2.02758 4.26186 2.01216 4.24952C1.99674 4.24027 1.98132 4.0583 1.98132 4.0583C1.98132 4.0583 1.95048 4.04596 1.91964 4.04596C1.8888 4.04596 1.85795 4.0583 1.85795 4.0583C1.85795 4.0583 1.84562 4.24027 1.8302 4.24952C1.81477 4.26186 1.65748 4.24952 1.65748 4.24952L1.64206 4.33588H1.8302L1.81477 4.53018C1.81477 4.53018 1.62972 4.56411 1.43542 4.57645C1.42308 4.61654 1.43542 4.67514 1.43542 4.67514L1.81477 4.6443C1.76543 4.77384 1.66982 5.06375 1.39224 5.04525C1.127 5.03291 1.0098 4.78617 1.05297 4.71215L1.89188 2.9048C1.95048 2.80919 1.93814 2.51311 1.71608 2.41133C1.56187 2.34348 1.3028 2.34965 1.1856 2.45451C1.12083 2.49769 1.08382 2.58405 1.08998 2.65498C1.09615 2.72592 1.21335 3.01275 1.05297 3.14846C1.21644 3.09603 1.23186 3.11762 1.37682 3.21323C1.17326 2.96649 1.1856 2.95724 1.21644 2.81228C1.36448 2.86163 1.58346 2.84312 1.58346 2.77527C1.58346 2.71358 1.52177 2.60564 1.43542 2.64882C1.34906 2.69199 1.4971 2.74443 1.39224 2.74443C1.29046 2.74443 1.21644 2.72284 1.21644 2.64882C1.21644 2.57479 1.31822 2.48844 1.46317 2.48844C1.60813 2.48844 1.7901 2.56246 1.75926 2.8277C1.72842 3.09603 0.864838 4.5857 0.864838 4.76458C0.864838 4.94964 1.02522 5.18404 1.45084 5.18404C1.72842 5.20563 1.8302 4.91263 1.92889 4.81393H1.92581Z" fill="#FFE400"/>
<path fill-rule="evenodd" clip-rule="evenodd" d="M1.95974 0.998797C2.06151 0.900102 2.02759 0.736639 2.30825 0.758228C2.73387 0.758228 2.74621 1.0173 2.74621 1.19927C2.74621 1.38124 2.10778 1.63414 2.07694 1.90247C2.04609 2.1708 2.22498 2.24173 2.37302 2.24173C2.51798 2.24173 2.61976 2.15846 2.61976 2.08444C2.61976 2.01042 2.5519 1.98574 2.44704 1.98574C2.34218 1.98574 2.4933 2.03818 2.40386 2.07827C2.31442 2.11836 2.25582 2.01659 2.25582 1.9549C2.25582 1.88705 2.47788 1.86546 2.62593 1.91481C2.65677 1.76985 2.6691 1.7606 2.46246 1.51386C2.6105 1.60947 2.62284 1.63106 2.7863 1.57554C2.62284 1.71742 2.74621 2.00116 2.74929 2.0721C2.75238 2.14304 2.71845 2.2294 2.65677 2.27258C2.5334 2.38669 2.27741 2.38669 2.1232 2.31884C1.89805 2.22014 1.88571 1.92406 1.94431 1.82537L2.57041 1.1931C2.61359 1.11908 2.63209 0.909355 2.36685 0.900102C2.08927 0.878513 1.99058 1.25787 1.94123 1.38432C1.87646 1.24553 1.80244 0.863092 1.52178 0.884681C1.25654 0.893934 1.20719 1.10058 1.25037 1.17768L1.8888 1.82537C1.95048 1.92406 1.93815 2.22014 1.713 2.31884C1.55879 2.38978 1.3028 2.38361 1.1856 2.27566C1.11775 2.23248 1.08074 2.14921 1.0869 2.07519C1.09307 2.00117 1.21336 1.7205 1.05298 1.58171C1.21336 1.63414 1.22878 1.61255 1.37374 1.52003C1.17018 1.76368 1.1856 1.77293 1.21336 1.92098C1.3614 1.87163 1.58346 1.89013 1.58346 1.9549C1.58346 2.01967 1.52178 2.12762 1.43234 2.08444C1.34598 2.04126 1.49402 1.98883 1.38916 1.98883C1.28738 1.98883 1.21336 2.01042 1.21336 2.08135C1.21336 2.15229 1.31514 2.24482 1.46318 2.24482C1.61122 2.24482 1.78702 2.1708 1.75618 1.90247C1.72534 1.63414 1.07765 1.34423 1.07765 1.16226C1.07765 0.977207 1.12083 0.758228 1.54645 0.758228C1.82403 0.736639 1.85796 0.900102 1.95974 0.998797Z" fill="#FFE400"/>
<path d="M13.7203 6.94852C13.7203 5.4823 12.4662 4.2937 10.919 4.2937C9.37192 4.2937 8.11774 5.4823 8.11774 6.94852C8.11774 8.41473 9.37192 9.60334 10.919 9.60334C12.4662 9.60334 13.7203 8.41473 13.7203 6.94852Z" fill="#FFE400"/>
<path fill-rule="evenodd" clip-rule="evenodd" d="M10.7874 2.71038C10.761 2.71038 10.636 3.59258 10.5899 3.79009C10.5438 4.23448 11.1824 4.21802 11.0771 3.77363L10.7874 2.70709V2.71038ZM11.0112 11.2624C11.0343 11.2624 11.2252 10.3901 11.2877 10.1959C11.3634 9.75808 10.7248 9.73504 10.794 10.1827L11.0112 11.2624ZM6.54758 6.93044C6.54758 6.95349 7.46598 7.13782 7.67007 7.19708C8.13092 7.27279 8.16384 6.67039 7.68982 6.73623L6.54758 6.93373V6.93044ZM15.4913 7.03578C15.4913 7.01274 14.5631 6.86131 14.3557 6.80865C13.8915 6.75269 13.8882 7.35508 14.3557 7.27279L15.4913 7.03578ZM7.48902 4.13243C7.47257 4.14889 8.07825 4.83358 8.20005 5.00146C8.51606 5.33064 8.93411 4.86979 8.51606 4.64595L7.48902 4.13572V4.13243ZM14.438 9.76137C14.4544 9.74491 13.7895 9.11289 13.6512 8.95818C13.3056 8.65533 12.9336 9.14581 13.3681 9.33673L14.438 9.76466V9.76137ZM8.87486 3.17782C8.85511 3.18769 9.1382 4.03697 9.18429 4.23777C9.34229 4.65582 9.91506 4.38261 9.6188 4.0238L8.87815 3.17782H8.87486ZM12.927 10.8279C12.9501 10.818 12.7295 9.95229 12.6999 9.75149C12.5715 9.32356 11.9823 9.55399 12.2489 9.93583L12.9303 10.8246L12.927 10.8279ZM13.9244 3.77034C13.9047 3.75388 13.1739 4.31677 12.9962 4.42869C12.6439 4.72495 13.1213 5.12655 13.3648 4.73483L13.9244 3.77034ZM7.9005 10.1465C7.91695 10.163 8.69052 9.65274 8.87486 9.5507C9.24683 9.28077 8.80244 8.84626 8.52923 9.22152L7.90379 10.1465H7.9005ZM6.74837 5.40306C6.7385 5.42281 7.5384 5.88695 7.71287 6.00874C8.12434 6.22271 8.36464 5.66311 7.89391 5.57423L6.74837 5.40306ZM15.0996 8.64217C15.1095 8.62242 14.3425 8.10561 14.1779 7.97394C13.7829 7.73034 13.5031 8.27349 13.9672 8.39199L15.0996 8.64217ZM12.4464 2.95068C12.4234 2.9441 11.9658 3.72096 11.844 3.88884C11.8443 3.94245 11.8613 3.99465 11.8927 4.03811C11.9241 4.08156 11.9683 4.11411 12.0191 4.13117C12.0699 4.14823 12.1248 4.14896 12.1761 4.13324C12.2273 4.11753 12.2724 4.08617 12.3049 4.04355L12.4464 2.95068ZM9.35546 10.9925C9.3785 11.0024 9.89202 10.2551 10.0237 10.0938C10.264 9.71199 9.68135 9.4684 9.57272 9.9095L9.35546 10.9925ZM6.80434 8.71129C6.81421 8.73104 7.72603 8.51379 7.94 8.48087C8.38768 8.35578 8.1375 7.80276 7.74249 8.05952L6.80434 8.71129ZM15.1029 5.33064C15.0963 5.31089 14.1713 5.4656 13.9574 5.48535C13.4965 5.58081 13.7105 6.15029 14.122 5.91987L15.1029 5.33064Z" fill="#FFE400"/>
<path fill-rule="evenodd" clip-rule="evenodd" d="M11.6959 2.76629C11.6729 2.763 11.3634 3.6024 11.2713 3.78674C11.1363 4.21467 11.765 4.32001 11.7552 3.86575L11.6992 2.763L11.6959 2.76629ZM10.0994 11.1899C10.1224 11.1965 10.4944 10.3769 10.5998 10.1958C10.7643 9.78107 10.1455 9.63623 10.1224 10.0872L10.0961 11.1899H10.0994ZM9.7801 2.84859C9.75706 2.85517 9.84264 3.74395 9.84264 3.94804C9.90519 4.38585 10.5207 4.23442 10.3167 3.82624L9.7801 2.84859ZM12.0185 11.1406C12.0416 11.1373 12.0185 10.2452 12.035 10.0411C12.0053 9.59673 11.3766 9.70865 11.5544 10.13L12.0152 11.1406H12.0185ZM8.19346 3.58594C8.17371 3.59911 8.61152 4.38585 8.69381 4.57348C8.93082 4.95862 9.44105 4.59652 9.08224 4.29039L8.19346 3.58594ZM13.6183 10.4295C13.6381 10.4164 13.2562 9.60002 13.1904 9.4091C12.983 9.01079 12.4497 9.33997 12.7822 9.66586L13.6183 10.4295ZM7.03476 4.69198C7.02159 4.71173 7.72932 5.29767 7.87745 5.44909C8.24284 5.7256 8.58189 5.21208 8.13421 5.05079L7.03476 4.69198ZM14.7441 9.29059C14.7573 9.27084 14.0956 8.63882 13.9574 8.48082C13.615 8.18127 13.2398 8.67174 13.6743 8.86266L14.7441 9.29059ZM6.52783 6.07124C6.52124 6.09428 7.39356 6.42675 7.58449 6.52221C8.02558 6.67034 8.16713 6.08111 7.68653 6.06794L6.52783 6.07124ZM15.33 7.97388C15.3399 7.95413 14.4939 7.5657 14.3096 7.45708C13.8817 7.27932 13.694 7.85867 14.1713 7.90476L15.33 7.97388ZM6.4982 7.7665C6.50149 7.78625 7.44294 7.77309 7.6569 7.78954C8.12434 7.7665 8.01242 7.17069 7.56473 7.33199L6.4982 7.7665ZM15.3926 6.2852C15.3926 6.26216 14.4511 6.21278 14.2405 6.18316C13.7697 6.17657 13.8389 6.77897 14.2964 6.64401L15.3926 6.28191V6.2852ZM7.30468 9.52431C7.31785 9.54406 8.16055 9.14246 8.35805 9.06675C8.76623 8.85279 8.39097 8.36231 8.06508 8.69478L7.30468 9.52431ZM14.6223 4.51093C14.6091 4.49118 13.7434 4.83682 13.536 4.89936C13.1114 5.087 13.4504 5.60051 13.7994 5.29109L14.6223 4.51093ZM8.67406 10.6896C8.69381 10.6995 9.29621 10.0148 9.44763 9.86995C9.73401 9.51773 9.18429 9.21159 9.02299 9.63952L8.67406 10.6896ZM13.2727 3.3226C13.2562 3.30944 12.6044 3.95133 12.4431 4.08629C12.1337 4.41876 12.6604 4.76111 12.8513 4.34635L13.2694 3.3226H13.2727Z" fill="#FFE400"/>
<path fill-rule="evenodd" clip-rule="evenodd" d="M6.63587 8.71426C6.68616 8.88403 6.69334 9.83471 7.70628 10.7514C8.71204 11.6614 10.4362 11.8651 10.4362 11.8651C10.4362 11.8651 10.4434 11.9941 10.3212 12.0009C10.1991 12.0145 9.61003 11.8991 9.31549 11.8108C9.02813 11.7293 8.76951 11.5799 8.74077 11.5867C8.70485 11.6003 8.64738 11.6953 8.56117 11.6818C8.47497 11.6682 8.05829 11.2607 7.87151 11.1521C7.49792 10.8469 7.16717 10.4977 6.88731 10.1131C6.68616 9.80755 6.63587 9.60383 6.57121 9.60383C6.50656 9.60383 6.26949 9.75323 6.26949 9.75323C6.26949 9.75323 6.05397 9.44765 5.86718 8.95873C5.67322 8.4698 5.69477 8.1846 5.73787 8.16422C5.78816 8.14385 5.78816 8.52413 5.93184 8.87045C6.07552 9.22356 6.27667 9.33221 6.27667 9.33221C6.27667 9.33221 6.14736 9.14886 6.04678 8.69389C5.94621 8.23892 5.9031 7.79753 5.97494 7.66172C6.04678 7.52591 6.11144 7.48516 6.11862 7.49195C6.13299 7.50554 5.9965 7.70246 6.08989 8.22534C6.18328 8.74822 6.43472 9.18961 6.49219 9.16923C6.54966 9.14886 6.45627 9.04021 6.42035 8.73464C6.38443 8.42906 6.45627 8.23892 6.53529 8.21176C6.57121 8.1846 6.62869 8.55129 6.63587 8.71426ZM5.93184 9.58346C5.73787 9.4137 5.43615 8.82291 5.37149 8.85008C5.29965 8.88403 5.86 9.73285 5.87437 9.80076C5.88874 9.88225 6.01086 10.1131 5.91747 10.0792C5.82408 10.0452 5.15597 9.37974 5.235 9.50876C5.31402 9.63779 5.8169 10.2218 5.78816 10.2557C5.75942 10.2897 5.37149 9.92978 5.35712 9.97732C5.34994 10.0181 5.73787 10.3712 5.73069 10.4119C5.7235 10.4527 5.47925 10.1878 5.47925 10.2421C5.47925 10.2965 5.73069 10.5613 5.73069 10.6021C5.73069 10.6428 5.51517 10.4119 5.58701 10.5341C5.65166 10.67 5.83845 10.7854 5.83126 10.8261C5.82408 10.8669 5.67322 10.7718 5.67322 10.7922C5.67322 10.8126 5.95339 10.9076 6.01805 10.9823C6.08989 11.057 6.54966 11.5595 6.89449 11.8108C7.23932 12.062 8.23071 12.5034 8.30255 12.5034C8.36721 12.5034 8.46778 12.3676 8.44623 12.3133C8.42468 12.259 7.45484 11.9466 7.18903 11.7157C6.91604 11.4848 6.25512 10.928 6.19765 10.9008C6.14736 10.8669 5.9965 10.8805 5.9965 10.8465C5.9965 10.8126 6.19046 10.8669 6.1761 10.8465C6.16891 10.8261 5.91029 10.7175 5.91747 10.6971C5.93184 10.6767 6.09707 10.7379 6.09707 10.7175C6.09707 10.6971 5.79534 10.5409 5.80971 10.507C5.8169 10.473 6.03242 10.6021 6.03242 10.5749C6.03242 10.5613 5.74506 10.3712 5.75224 10.3372C5.75942 10.3033 5.97494 10.4866 5.96776 10.4459C5.96057 10.4051 5.79534 10.1742 5.79534 10.1471C5.79534 10.1131 6.05397 10.378 6.0827 10.3236C6.09707 10.2761 5.98931 9.83471 5.9965 9.82792C6.00368 9.82113 6.19046 9.92299 6.2192 9.86188C6.25512 9.79397 6.08989 9.70569 5.93184 9.58346ZM9.24365 12.9244C9.10715 12.9448 9.0425 12.8973 9.12152 12.7886C9.22928 12.7886 9.51664 12.7003 9.61722 12.6596C9.71779 12.6189 9.82555 12.5645 9.91176 12.4898C9.99797 12.4016 10.0554 12.5374 10.0052 12.6121C9.96923 12.6596 9.804 12.7479 9.68187 12.7954C9.50227 12.8497 9.34423 12.9312 9.24365 12.9244ZM10.1416 12.5781C10.0483 12.483 10.1273 12.4151 10.2638 12.3404C10.4649 12.2386 10.4075 12.096 10.6661 11.9805C10.781 11.9126 12.3902 11.3015 12.9147 10.9755C13.4391 10.6496 14.9118 9.59704 15.3069 8.87045C15.6949 8.15064 15.5081 8.09632 15.5655 8.06916C15.6158 8.0352 15.6733 8.17102 15.6661 8.33399C15.6518 8.49017 15.5224 8.96552 15.5655 9.01305C15.6087 9.06058 16.1546 8.63957 16.3845 8.13027C16.6144 7.62098 16.7868 7.09131 16.8946 7.09131C17.0095 7.09131 16.7078 7.96051 16.5138 8.30004C16.327 8.63957 16.1043 8.80933 16.1546 8.88403C16.2121 8.95193 16.7725 8.51055 16.9664 8.1846C17.1532 7.85186 17.3328 7.55986 17.3687 7.62098C17.3116 8.01876 17.1457 8.39558 16.8874 8.71426C16.5857 9.04021 16.2265 9.27788 16.2839 9.32542C16.3342 9.37974 16.7437 9.43407 17.1676 9.16244C17.5986 8.88403 17.6417 8.48338 17.692 8.50375C17.7495 8.52413 17.6417 9.07417 17.2322 9.4137C16.8227 9.75323 16.2839 9.78718 16.2983 9.86188C16.327 9.92978 17.4693 9.54951 17.4477 9.63779C17.4262 9.71927 15.9678 10.2625 15.9535 10.3168C15.9535 10.3576 16.2049 10.3712 16.6 10.2829C16.988 10.2014 17.3615 9.90941 17.4118 9.97732C17.4262 10.0724 17.1317 10.3033 16.6862 10.4119C16.2337 10.5206 16.011 10.6632 15.9966 10.6971C15.9894 10.7311 16.8012 10.6021 16.8012 10.6428C16.8012 10.6835 15.738 10.8805 15.7308 10.9348C15.7164 10.9823 16.7365 10.7379 16.7222 10.799C16.6934 10.8465 15.3357 11.2268 15.35 11.2472C15.3572 11.2743 16.4851 11.0163 16.4635 11.057C16.4348 11.1046 14.567 11.6003 14.5526 11.6342C14.5382 11.6614 16.2049 11.2811 16.1906 11.3151C16.1762 11.349 15.3285 11.5459 15.3285 11.5663C15.3285 11.5867 16.011 11.4645 15.9966 11.4984C15.9894 11.5256 14.2724 11.9398 14.2365 12.0009C14.2006 12.0688 15.1273 11.8312 15.113 11.9534C15.0986 12.0756 13.123 12.7003 13.1158 12.5849C13.1014 12.4695 14.3155 12.1775 14.3084 12.1435C14.294 12.1096 13.6115 12.2114 13.5971 12.1503C13.59 12.0824 14.0497 11.9466 14.0138 11.9194C13.9779 11.8855 13.6331 12.0145 13.6618 11.9398C13.6977 11.8651 14.3515 11.5799 14.3371 11.5595C14.3299 11.5392 14.1 11.6274 14.1216 11.5595C14.1503 11.4848 15.5368 11.1046 15.5153 11.057C15.4937 11.0163 14.8759 11.1521 14.8184 11.1657C14.7969 11.1249 15.6805 10.8126 15.6661 10.7582C15.6374 10.7107 15.192 10.9416 15.1632 10.8805C15.1489 10.8126 15.9463 10.5206 15.896 10.473C15.8457 10.4255 15.4865 10.5953 15.4362 10.5477C15.3859 10.5002 16.1906 9.97732 16.0684 9.96373C15.9463 9.95694 15.7954 10.1267 15.7811 10.0181C15.7954 9.88225 16.4061 9.65816 16.2696 9.54951C16.0541 9.48839 15.3285 9.59704 15.0267 9.76681C14.725 9.93657 13.7193 10.8805 13.475 11.0299C13.2308 11.1725 12.3974 11.5052 12.2394 11.5731C11.9951 11.6546 11.952 11.7768 11.7006 11.8991C11.248 12.0145 11.2552 12.1435 11.0396 12.2182C10.9606 12.2386 10.1488 12.6053 10.1416 12.5781ZM9.00658 13.0535C8.87008 13.1214 8.74796 13.2843 8.82698 13.3522C8.87008 13.4337 9.00658 13.1689 9.11434 13.1825L9.68906 13.2096C9.99797 13.23 10.1488 13.1485 10.3212 13.1621C10.4937 13.1757 10.8744 13.0738 11.054 13.0738C11.2336 13.0738 11.2695 13.0942 11.2839 13.0195C11.3055 12.9516 10.7235 12.9991 10.4649 12.9923C10.2063 12.9788 9.88302 13.0399 9.68906 13.0399C9.50946 13.0331 9.20055 12.9788 9.00658 13.0535Z" fill="#FFE400"/>
<path d="M9.86864 12.972C9.86864 12.9157 9.81397 12.8701 9.74652 12.8701C9.67907 12.8701 9.62439 12.9157 9.62439 12.972C9.62439 13.0282 9.67907 13.0738 9.74652 13.0738C9.81397 13.0738 9.86864 13.0282 9.86864 12.972Z" fill="#FFE400"/>
<path fill-rule="evenodd" clip-rule="evenodd" d="M12.735 12.775C12.8572 12.7547 13.1876 12.8633 13.4175 12.9108C13.8342 13.067 14.6101 12.9923 14.6101 13.067C14.6101 13.1417 14.5598 13.23 14.3802 13.2436C14.2006 13.2572 13.748 13.1757 13.7623 13.1757C13.7767 13.1757 14.1215 13.3319 14.021 13.3726C13.9204 13.4134 13.6259 13.2843 13.5756 13.3183C13.5253 13.3522 13.8486 13.4134 13.7911 13.4337C13.748 13.4541 13.5253 13.4066 13.4534 13.4134C13.3816 13.4269 13.5109 13.5016 13.4247 13.5288C13.3385 13.5627 13.1948 13.4881 13.1373 13.5084C13.0727 13.5288 13.2667 13.6442 13.1804 13.6578C13.0942 13.6714 12.8931 13.6035 12.7781 13.5899C12.6632 13.5899 12.8859 13.6986 12.8141 13.7121C12.7422 13.7189 12.5411 13.6239 12.4908 13.6239C12.4405 13.6239 12.4908 13.7597 12.4189 13.7597C12.3471 13.7597 12.2609 13.6442 12.2178 13.6442C12.1747 13.6442 12.2178 13.78 12.146 13.78C12.0741 13.78 12.0454 13.6374 11.9879 13.6442C11.9161 13.6578 11.9879 13.8276 11.8873 13.814C11.7939 13.8072 11.7796 13.6374 11.7006 13.6442C11.6287 13.6578 11.7149 13.814 11.6431 13.814C11.5712 13.814 11.5569 13.6578 11.485 13.6442C11.4132 13.6374 11.4419 13.7936 11.3988 13.7936C11.3557 13.7936 11.3126 13.6442 11.2839 13.6442C11.2623 13.6442 11.2839 13.7936 11.1977 13.78C11.1115 13.7665 11.1115 13.6171 11.0899 13.6239C11.0612 13.6374 11.0612 13.7461 11.0037 13.7461C10.9462 13.7461 10.939 13.6374 10.9175 13.651C10.8888 13.6578 10.8026 13.7936 10.7451 13.7733C10.6804 13.7529 10.7595 13.6442 10.7307 13.6442C10.702 13.6442 10.6301 13.7189 10.587 13.7121C10.5439 13.7053 10.587 13.6171 10.5727 13.6171C10.5583 13.6171 10.4505 13.6714 10.4003 13.6714C10.35 13.6714 10.2135 13.7393 10.1775 13.6782C10.1416 13.6103 10.2709 13.6103 10.2997 13.5492C10.3212 13.4881 10.2278 13.3047 10.3284 13.2436C10.4218 13.1757 10.7307 13.3319 11.1905 13.2232C12.0238 13.0127 12.6704 12.7682 12.735 12.775Z" fill="#FFE400"/>
</svg>
