<svg width="25" height="15" viewBox="0 0 25 15" fill="none" xmlns="http://www.w3.org/2000/svg">
<path fill-rule="evenodd" clip-rule="evenodd" d="M0.117004 0H24.1031V1.13691H0.117004V0ZM0.117004 2.27382H24.1031V3.41072H0.117004V2.27382ZM0.117004 4.54474H24.1031V5.68454H0.117004V4.54474ZM0.117004 6.81856H24.1031V7.95547H0.117004V6.81856ZM0.117004 9.09238H24.1031V10.2293H0.117004V9.09238ZM0.117004 11.3633H24.1031V12.5002H0.117004V11.3633ZM0.117004 13.6371H24.1031V14.774H0.117004V13.6371Z" fill="#BD3D44"/>
<path fill-rule="evenodd" clip-rule="evenodd" d="M0.117004 1.13687H24.1031V2.27378H0.117004V1.13687ZM0.117004 3.41069H24.1031V4.54471H0.117004V3.41069ZM0.117004 5.68162H24.1031V6.81852H0.117004V5.68162ZM0.117004 7.95543H24.1031V9.09234H0.117004V7.95543ZM0.117004 10.2292H24.1031V11.3662H0.117004V10.2292ZM0.117004 12.5002H24.1031V13.6371H0.117004V12.5002Z" fill="white"/>
<path fill-rule="evenodd" clip-rule="evenodd" d="M0.117004 0H9.71094V7.95547H0.117004V0Z" fill="#192F5D"/>
<path fill-rule="evenodd" clip-rule="evenodd" d="M0.915871 0.340515L1.00464 0.65504H1.28572L1.05888 0.848372L1.14518 1.16578L0.915871 0.969565L0.68903 1.1629L0.775328 0.848372L0.546021 0.65504H0.832039L0.915871 0.340515ZM2.51609 0.340515L2.60239 0.65504H2.88594L2.65664 0.848372L2.74293 1.16578L2.51609 0.969565L2.28679 1.1629L2.37308 0.848372L2.14624 0.65504H2.42733L2.51609 0.340515ZM4.11385 0.340515L4.20261 0.65504H4.48123L4.25439 0.848372L4.34069 1.16578L4.11138 0.969565L3.88454 1.1629L3.97084 0.848372L3.74153 0.65504H4.02508L4.11385 0.340515ZM5.71407 0.340515L5.80037 0.65504H6.08392L5.85461 0.848372L5.94338 1.16578L5.71407 0.969565L5.48476 1.1629L5.57353 0.848372L5.34422 0.65504H5.62531L5.71407 0.340515ZM7.31183 0.340515L7.40059 0.65504H7.68168L7.45483 0.848372L7.54113 1.16578L7.31183 0.969565L7.08498 1.1629L7.17128 0.848372L6.94444 0.65504H7.22553L7.31183 0.340515ZM8.91205 0.340515L8.99835 0.65504H9.2819L9.05259 0.848372L9.14135 1.16578L8.91205 0.969565L8.68274 1.1629L8.7715 0.848372L8.5422 0.65504H8.82575L8.91205 0.340515ZM1.71721 1.13693L1.80351 1.45145H2.08707L1.85776 1.64478L1.94159 1.95931L1.71968 1.76598L1.49037 1.95931L1.57174 1.64478L1.34983 1.45145H1.63092L1.71721 1.13693ZM3.31497 1.13693L3.40373 1.45145H3.68482L3.45551 1.64478L3.54428 1.95931L3.31497 1.76598L3.08566 1.95931L3.17443 1.64478L2.94512 1.45145H3.22867L3.31497 1.13693ZM4.91519 1.13693L5.00149 1.45145H5.28504L5.05574 1.64478L5.14203 1.95931L4.91519 1.76598L4.68588 1.95931L4.77218 1.64478L4.54534 1.45145H4.82643L4.91519 1.13693ZM6.51295 1.13693L6.60171 1.45145H6.8828L6.65349 1.64478L6.74226 1.95931L6.51295 1.76598L6.28611 1.95931L6.3724 1.64478L6.1431 1.45145H6.42911L6.51295 1.13693ZM8.11317 1.13693L8.19947 1.45145H8.48302L8.25371 1.64478L8.34001 1.95931L8.11317 1.76598L7.88386 1.95931L7.97016 1.64478L7.74332 1.45145H8.02441L8.11317 1.13693ZM0.915871 1.93045L1.00464 2.25075H1.28572L1.05888 2.44408L1.14518 2.75861L0.915871 2.56239L0.68903 2.75861L0.775328 2.4412L0.546021 2.24787H0.832039L0.915871 1.93045ZM2.51609 1.93045L2.60239 2.24787H2.88594L2.65664 2.4412L2.74293 2.75572L2.51609 2.5595L2.28679 2.75572L2.37308 2.43831L2.14624 2.24498H2.42733L2.51609 1.93045ZM4.11385 1.93045L4.20261 2.24787H4.48123L4.25439 2.4412L4.34069 2.75572L4.11138 2.5595L3.88454 2.75572L3.97084 2.43831L3.74153 2.24498H4.02508L4.11385 1.93045ZM5.71407 1.93045L5.80037 2.24787H6.08392L5.85461 2.4412L5.94338 2.75572L5.71407 2.5595L5.48476 2.75572L5.57353 2.43831L5.34422 2.24498H5.62531L5.71407 1.93045ZM7.31183 1.93045L7.40059 2.24787H7.68168L7.45483 2.4412L7.54113 2.75572L7.31183 2.5595L7.08498 2.75572L7.17128 2.43831L6.94444 2.24498H7.22553L7.31183 1.93045ZM8.91205 1.93045L8.99835 2.24787H9.2819L9.05259 2.4412L9.14135 2.75572L8.91205 2.5595L8.68274 2.75572L8.7715 2.43831L8.5422 2.24498H8.82575L8.91205 1.93045ZM1.71721 2.72687L1.80351 3.04139H2.08707L1.85776 3.23472L1.94406 3.55213L1.71721 3.35592L1.48791 3.54925L1.57421 3.23472L1.34736 3.04139H1.62845L1.71721 2.72687ZM3.31497 2.72687L3.40373 3.04139H3.68482L3.45551 3.23472L3.54428 3.55213L3.31497 3.35592L3.08566 3.54925L3.17443 3.23472L2.94512 3.04139H3.22867L3.31497 2.72687ZM4.91519 2.72687L5.00149 3.04139H5.28504L5.05574 3.23472L5.14203 3.55213L4.91519 3.35592L4.68588 3.54925L4.77218 3.23472L4.54534 3.04139H4.82643L4.91519 2.72687ZM6.51295 2.72687L6.60171 3.04139H6.8828L6.65596 3.23472L6.74226 3.55213L6.51295 3.35592L6.28611 3.54925L6.3724 3.23472L6.1431 3.04139H6.42911L6.51295 2.72687ZM8.11317 2.72687L8.19947 3.04139H8.48302L8.25371 3.23472L8.34001 3.55213L8.11317 3.35592L7.88386 3.54925L7.97016 3.23472L7.74332 3.04139H8.02441L8.11317 2.72687ZM0.915871 3.52328L1.00464 3.8378H1.28572L1.05888 4.03114L1.14518 4.34855L0.915871 4.15233L0.68903 4.34566L0.775328 4.03114L0.546021 3.8378H0.832039L0.915871 3.52328ZM2.51609 3.52328L2.60239 3.8378H2.88594L2.65664 4.03114L2.74293 4.34566L2.51609 4.15233L2.28679 4.34566L2.37308 4.03114L2.14624 3.8378H2.42733L2.51609 3.52328ZM4.11385 3.52328L4.20261 3.8378H4.48123L4.25439 4.03114L4.34069 4.34855L4.11138 4.15233L3.88454 4.34566L3.97084 4.03114L3.74153 3.8378H4.02508L4.11385 3.52328ZM5.71407 3.52328L5.80037 3.8378H6.08392L5.85461 4.03114L5.94338 4.34855L5.71407 4.15233L5.48476 4.34566L5.57353 4.03114L5.34422 3.8378H5.62531L5.71407 3.52328ZM7.31183 3.52328L7.40059 3.8378H7.68168L7.45483 4.03114L7.54113 4.34855L7.31183 4.15233L7.08498 4.34566L7.17128 4.03114L6.94444 3.8378H7.22553L7.31183 3.52328ZM8.91205 3.52328L8.99835 3.8378H9.2819L9.05259 4.03114L9.14135 4.34855L8.91205 4.15233L8.68274 4.34566L8.7715 4.03114L8.5422 3.8378H8.82575L8.91205 3.52328ZM1.71721 4.31969L1.80351 4.63422H2.08707L1.85776 4.82755L1.94406 5.14207L1.71721 4.94586L1.48791 5.14207L1.57421 4.82466L1.34736 4.63133H1.62845L1.71721 4.31969ZM3.31497 4.31969L3.40373 4.63422H3.68482L3.45551 4.82755L3.54428 5.14207L3.31497 4.94586L3.08566 5.14207L3.17443 4.82466L2.94512 4.63133H3.22867L3.31497 4.31969ZM4.91519 4.31969L5.00149 4.63422H5.28504L5.05574 4.82755L5.14203 5.14207L4.91519 4.94586L4.68588 5.14207L4.77218 4.82466L4.54534 4.63133H4.82643L4.91519 4.31969ZM6.51295 4.31969L6.60171 4.63422H6.8828L6.65596 4.82755L6.74226 5.14207L6.51295 4.94586L6.28611 5.14207L6.3724 4.82466L6.1431 4.63133H6.42911L6.51295 4.31969ZM8.11317 4.31969L8.19947 4.63422H8.48302L8.25371 4.82755L8.34001 5.14207L8.11317 4.94586L7.88386 5.14207L7.97016 4.82466L7.74332 4.63133H8.02441L8.11317 4.31969ZM0.915871 5.11322L1.00464 5.43063H1.28572L1.05888 5.62396L1.14518 5.9356L0.915871 5.74227L0.68903 5.9356L0.775328 5.62108L0.546021 5.42774H0.832039L0.915871 5.11322ZM2.51609 5.11322L2.60239 5.43063H2.88594L2.65664 5.62396L2.7454 5.9356L2.51609 5.74227L2.28679 5.9356L2.37555 5.62108L2.14624 5.42774H2.42733L2.51609 5.11322ZM4.11385 5.11322L4.20261 5.43063H4.48123L4.25439 5.62396L4.34069 5.9356L4.11138 5.74227L3.88454 5.9356L3.97084 5.62108L3.74153 5.42774H4.02508L4.11385 5.11322ZM5.71407 5.11322L5.80037 5.43063H6.08392L5.85461 5.62396L5.94338 5.9356L5.71407 5.74227L5.48476 5.9356L5.57353 5.62108L5.34422 5.42774H5.62531L5.71407 5.11322ZM7.31183 5.11322L7.40059 5.43063H7.68168L7.45483 5.62396L7.54113 5.9356L7.31183 5.74227L7.08498 5.9356L7.17128 5.62108L6.94444 5.42774H7.22553L7.31183 5.11322ZM8.91205 5.11322L8.99835 5.43063H9.2819L9.05259 5.62396L9.14135 5.9356L8.91205 5.74227L8.68274 5.9356L8.7715 5.62108L8.5422 5.42774H8.82575L8.91205 5.11322ZM1.71721 5.90963L1.80351 6.22416H2.08707L1.85776 6.41749L1.94406 6.7349L1.71721 6.53868L1.48791 6.73201L1.57421 6.41749L1.34736 6.22416H1.62845L1.71721 5.90963ZM3.31497 5.90963L3.40373 6.22416H3.68482L3.45551 6.41749L3.54428 6.7349L3.31497 6.53868L3.08566 6.73201L3.17443 6.41749L2.94512 6.22416H3.22867L3.31497 5.90963ZM4.91519 5.90963L5.00149 6.22416H5.28504L5.05574 6.41749L5.14203 6.7349L4.91519 6.53868L4.68588 6.73201L4.77218 6.41749L4.54534 6.22416H4.82643L4.91519 5.90963ZM6.51295 5.90963L6.60171 6.22416H6.8828L6.65596 6.41749L6.74226 6.7349L6.51295 6.53868L6.28611 6.73201L6.3724 6.41749L6.1431 6.22416H6.42911L6.51295 5.90963ZM8.11317 5.90963L8.19947 6.22416H8.48302L8.25371 6.41749L8.34001 6.7349L8.11317 6.53868L7.88386 6.73201L7.97016 6.41749L7.74332 6.22416H8.02441L8.11317 5.90963ZM0.915871 6.70604L1.00464 7.02057H1.28572L1.05888 7.2139L1.14518 7.52843L0.915871 7.33509L0.68903 7.52843L0.775328 7.21101L0.546021 7.01768H0.832039L0.915871 6.70604ZM2.51609 6.70604L2.60239 7.02057H2.88594L2.65664 7.2139L2.7454 7.52843L2.51609 7.33509L2.28679 7.52843L2.37555 7.21101L2.14624 7.01768H2.42733L2.51609 6.70604ZM4.11385 6.70604L4.20261 7.02057H4.48123L4.25932 7.2139L4.34562 7.52843L4.11631 7.33509L3.88947 7.52843L3.97577 7.21101L3.74646 7.01768H4.03002L4.11385 6.70604ZM5.71407 6.70604L5.80037 7.02057H6.08392L5.85461 7.2139L5.94338 7.52843L5.71407 7.33509L5.48476 7.52843L5.57353 7.21101L5.34422 7.01768H5.62531L5.71407 6.70604ZM7.31183 6.70604L7.40059 7.02057H7.68168L7.45483 7.2139L7.54113 7.52843L7.31183 7.33509L7.08498 7.52843L7.17128 7.21101L6.94444 7.01768H7.22553L7.31183 6.70604ZM8.91205 6.70604L8.99835 7.02057H9.2819L9.05259 7.2139L9.14135 7.52843L8.91205 7.33509L8.68274 7.52843L8.7715 7.21101L8.5422 7.01768H8.82575L8.91205 6.70604Z" fill="white"/>
</svg>
