<svg width="20" height="16" viewBox="0 0 20 16" fill="none" xmlns="http://www.w3.org/2000/svg">
<path d="M0 0.5979H19.7389V15.4021H0V0.5979Z" fill="#012169"/>
<path d="M2.31316 0.5979L9.83863 6.18032L17.3333 0.5979H19.7389V2.51011L12.3368 8.03085L19.7389 13.5207V15.4021H17.2716L9.86947 9.88137L2.49821 15.4021H0V13.5516L7.37126 8.06169L0 2.57179V0.5979H2.31316Z" fill="white"/>
<path d="M13.077 9.26453L19.7389 14.1684V15.4021L11.3807 9.26453H13.077ZM7.4021 9.88137L7.58715 10.9608L1.66547 15.4021H0L7.4021 9.88137ZM19.7389 0.5979V0.690427L12.0593 6.48874L12.1209 5.13169L18.1968 0.5979H19.7389ZM0 0.5979L7.37126 6.02611H5.52073L0 1.89327V0.5979Z" fill="#C8102E"/>
<path d="M7.43294 0.5979V15.4021H12.3677V0.5979H7.43294ZM0 5.53264V10.4674H19.7389V5.53264H0Z" fill="white"/>
<path d="M0 6.55043V9.51127H19.7389V6.55043H0ZM8.41989 0.5979V15.4021H11.3807V0.5979H8.41989Z" fill="#C8102E"/>
</svg>
